<svg width="48" height="36" viewBox="0 0 48 36" fill="none" xmlns="http://www.w3.org/2000/svg">
<path d="M11.6431 36C9.50186 36 7.67286 35.5985 6.15614 34.7955C4.72863 33.9926 3.56877 32.8773 2.67658 31.4498C1.78439 30.1115 1.11524 28.5056 0.669145 26.632C0.223048 24.6691 0 22.8401 0 21.145C0 16.684 1.11524 12.6245 3.34573 8.96654C5.66543 5.21933 9.18959 2.23048 13.9182 0L15.1227 2.40892C12.5353 3.47955 10.2602 5.17472 8.2974 7.49442C6.42379 9.81413 5.30855 12.1784 4.95167 14.5874C4.68402 16.2825 4.72863 17.8439 5.0855 19.2714C6.86989 17.487 9.14498 16.5948 11.9108 16.5948C14.7658 16.5948 17.1301 17.4424 19.0037 19.1375C20.8773 20.8327 21.8141 23.2416 21.8141 26.3643C21.8141 29.2193 20.8327 31.539 18.8699 33.3234C16.9071 35.1078 14.4981 36 11.6431 36ZM37.606 36C35.4647 36 33.6357 35.5985 32.119 34.7955C30.6915 33.9926 29.5316 32.8773 28.6394 31.4498C27.7472 30.1115 27.0781 28.5056 26.632 26.632C26.1859 24.6691 25.9628 22.8401 25.9628 21.145C25.9628 16.684 27.0781 12.6245 29.3086 8.96654C31.6283 5.21933 35.1524 2.23048 39.881 0L41.0855 2.40892C38.4981 3.47955 36.2231 5.17472 34.2602 7.49442C32.3866 9.81413 31.2714 12.1784 30.9145 14.5874C30.6468 16.2825 30.6915 17.8439 31.0483 19.2714C32.8327 17.487 35.1078 16.5948 37.8736 16.5948C40.7286 16.5948 43.0929 17.4424 44.9665 19.1375C46.8402 20.8327 47.777 23.2416 47.777 26.3643C47.777 29.2193 46.7955 31.539 44.8327 33.3234C42.8699 35.1078 40.461 36 37.606 36Z" fill="#C4C4B5"/>
</svg>
