<svg width="40" height="65" viewBox="0 0 40 65" fill="none" xmlns="http://www.w3.org/2000/svg">
<path d="M35.7794 31.2032C38.6359 23.5935 41.2753 12.6123 39.3328 6.69508C36.5791 -1.67288 30.6833 -0.291761 25.4845 0.913291C23.6334 1.34654 21.7139 1.79337 20 1.79337C18.2861 1.79337 16.3665 1.34654 14.5155 0.913291C9.31667 -0.305343 3.43219 -1.67288 0.66713 6.69508C-1.27526 12.5987 1.36415 23.5935 4.22059 31.2032C4.30061 31.4199 4.33489 31.65 4.31196 31.8802C4.03774 35.0622 3.90062 38.2713 3.91209 41.4668C3.91209 50.2003 5.0318 65 9.20237 65C12.7788 65 13.27 59.3807 13.7956 53.423C14.5383 44.8519 15.4295 38.7858 20 38.7858C24.5019 38.7858 25.3702 44.7977 26.1129 53.2739C26.6386 59.2995 27.1298 64.9864 30.7976 64.9864C34.9795 64.9864 36.0992 50.1867 36.0992 41.4532C36.0992 38.2577 35.9736 35.0621 35.6993 31.8666C35.6651 31.65 35.6993 31.4063 35.7794 31.2032ZM30.7861 62.292C29.1865 62.292 28.7522 57.3498 28.3752 53.0033C27.7124 45.4614 26.9012 36.0779 19.9885 36.0779C13.0072 36.0779 12.1731 45.5426 11.5104 53.1388C11.1333 57.431 10.7105 62.2921 9.24801 62.2921C8.15111 61.764 6.1858 54.371 6.1858 41.4534C6.17433 38.3392 6.31145 35.2384 6.57432 32.1512C6.63141 31.4471 6.54004 30.743 6.30009 30.1066C2.88374 20.9937 1.44406 11.7727 2.79237 7.68357C4.0492 3.87876 5.95742 2.7142 8.66539 2.7142C10.2079 2.7142 11.9904 3.09338 14.0699 3.58083C16.0352 4.04125 18.0689 4.51512 20 4.51512C21.931 4.51512 23.9648 4.04125 25.9301 3.58083C31.6431 2.24033 35.2423 1.72584 37.2076 7.68357C38.5559 11.7727 37.1047 20.9937 33.6997 30.1064C33.4598 30.7564 33.357 31.4605 33.4255 32.1781C33.6883 35.2653 33.814 38.3661 33.814 41.4804C33.8026 54.3708 31.8374 61.7773 30.7861 62.292Z" fill="#45AED1"/>
<path d="M6.61321 1.79337L20 2.70833L30.8827 1.79337L35 2.70833L37.5 5.41667L39.3328 15.8158L37.5 21.6667L35 29.7917V54.1667L30.7976 63.7737L27.5 59.5833L27.1126 53.1388L25.4304 41.4534L22.5 37.9167H17.5L13.7956 42.7882L12.5 51.4583L11.5104 61.9081L8.23255 63.7737L5 46.0417L5.51415 31.2032L2.5 21.6667L0.66713 13.3716L2.5 5.41667L6.61321 1.79337Z" fill="#45AED1"/>
</svg>
