<svg width="505" height="505" viewBox="0 0 505 505" fill="none" xmlns="http://www.w3.org/2000/svg">
<g clip-path="url(#clip0_94_85)">
<path d="M385.418 242.425C411.718 183.304 436.019 97.9881 418.135 52.0157C392.781 -12.997 338.499 -2.26676 290.634 7.09558C273.592 10.4616 255.918 13.9332 240.138 13.9332C224.359 13.9332 206.685 10.4616 189.643 7.09558C141.778 -2.37229 87.6 -12.997 62.1422 52.0157C44.2588 97.8826 68.5597 183.304 94.8587 242.425C95.5954 244.109 95.911 245.897 95.6999 247.685C93.1752 272.407 91.9128 297.339 92.0183 322.166C92.0183 390.019 102.327 505.001 140.726 505.001C173.653 505.001 178.176 461.343 183.016 415.056C189.853 348.466 198.059 301.336 240.138 301.336C281.587 301.336 289.581 348.045 296.42 413.899C301.259 460.712 305.782 504.896 339.551 504.896C378.054 504.896 388.363 389.913 388.363 322.06C388.363 297.234 387.206 272.406 384.681 247.58C384.366 245.897 384.681 244.003 385.418 242.425ZM339.446 483.962C324.718 483.962 320.72 445.565 317.248 411.796C311.147 353.201 303.678 280.298 240.033 280.298C175.757 280.298 168.077 353.832 161.975 412.848C158.504 446.196 154.611 483.963 141.146 483.963C131.047 479.86 112.952 422.422 112.952 322.062C112.847 297.867 114.109 273.776 116.529 249.791C117.055 244.32 116.214 238.85 114.005 233.905C82.5504 163.105 69.2954 91.4652 81.7092 59.6955C93.2807 30.1351 110.85 21.0873 135.782 21.0873C149.983 21.0873 166.394 24.0332 185.54 27.8204C203.635 31.3974 222.359 35.0791 240.138 35.0791C257.917 35.0791 276.642 31.3974 294.737 27.8204C347.336 17.4057 380.473 13.4085 398.568 59.6955C410.981 91.4652 397.621 163.105 366.271 233.904C364.062 238.954 363.115 244.425 363.747 250C366.166 273.985 367.324 298.076 367.324 322.271C367.218 422.421 349.125 479.964 339.446 483.962Z" fill="#BBEEEE"/>
</g>
<defs>
<clipPath id="clip0_94_85">
<rect width="505" height="505" fill="white"/>
</clipPath>
</defs>
</svg>
