<svg width="5" height="8" viewBox="0 0 5 8" fill="none" xmlns="http://www.w3.org/2000/svg">
<path d="M4.47242 3.84039C4.82949 2.90381 5.15941 1.55228 4.9166 0.824009C4.57239 -0.205893 3.83541 -0.035909 3.18556 0.112405C2.95418 0.165728 2.71423 0.220723 2.5 0.220723C2.28576 0.220723 2.04581 0.165728 1.81443 0.112405C1.16458 -0.0375807 0.429024 -0.205893 0.0833912 0.824009C-0.159407 1.55061 0.170519 2.90381 0.527574 3.84039C0.537576 3.86706 0.541861 3.89539 0.538995 3.92372C0.504717 4.31535 0.487578 4.71031 0.489011 5.1036C0.489011 6.1785 0.628975 8 1.1503 8C1.59734 8 1.65875 7.30839 1.72445 6.57514C1.81729 5.52024 1.92869 4.77363 2.5 4.77363C3.06273 4.77363 3.17127 5.51357 3.26412 6.55679C3.32982 7.2984 3.39123 7.99833 3.8497 7.99833C4.37244 7.99833 4.5124 6.17683 4.5124 5.10193C4.5124 4.70864 4.4967 4.31533 4.46242 3.92204C4.45813 3.89539 4.46242 3.86539 4.47242 3.84039ZM3.84826 7.6667C3.64831 7.6667 3.59403 7.05843 3.5469 6.52348C3.46405 5.59524 3.36265 4.44035 2.49856 4.44035C1.62591 4.44035 1.52164 5.60524 1.4388 6.54015C1.39166 7.06843 1.33881 7.66672 1.156 7.66672C1.01889 7.60173 0.773224 6.69181 0.773224 5.10196C0.771792 4.71867 0.788931 4.33704 0.82179 3.95707C0.828926 3.87041 0.817505 3.78376 0.787511 3.70542C0.360468 2.58384 0.180508 1.44895 0.349046 0.94567C0.50615 0.477386 0.744677 0.334056 1.08317 0.334056C1.27599 0.334056 1.4988 0.380723 1.75873 0.440718C2.0044 0.497384 2.25862 0.555707 2.5 0.555707C2.74138 0.555707 2.9956 0.497384 3.24126 0.440718C3.95538 0.275733 4.40528 0.212411 4.65095 0.94567C4.81949 1.44895 4.63809 2.58384 4.21247 3.70541C4.18247 3.7854 4.16962 3.87206 4.17819 3.96038C4.21104 4.34035 4.22676 4.72198 4.22676 5.10528C4.22532 6.6918 3.97967 7.60337 3.84826 7.6667Z" fill="#2973B2"/>
<path d="M0.826652 0.220723L2.5 0.333333L3.86033 0.220723L4.375 0.333333L4.6875 0.666667L4.9166 1.94655L4.6875 2.66667L4.375 3.66667V6.66667L3.8497 7.84907L3.4375 7.33333L3.38908 6.54015L3.1788 5.10196L2.8125 4.66667H2.1875L1.72445 5.26624L1.5625 6.33333L1.4388 7.61946L1.02907 7.84907L0.625 5.66667L0.689268 3.84039L0.3125 2.66667L0.0833912 1.64573L0.3125 0.666667L0.826652 0.220723Z" fill="#2973B2"/>
</svg>
