<svg width="383" height="409" viewBox="0 0 383 409" fill="none" xmlns="http://www.w3.org/2000/svg">
<g clip-path="url(#clip0_94_85)">
<path d="M263.418 277.425C289.718 218.304 314.019 132.988 296.135 87.0157C270.781 22.003 216.499 32.7332 168.634 42.0956C151.592 45.4616 133.918 48.9332 118.138 48.9332C102.359 48.9332 84.6852 45.4616 67.643 42.0956C19.778 32.6277 -34.4 22.003 -59.8578 87.0157C-77.7412 132.883 -53.4403 218.304 -27.1413 277.425C-26.4046 279.109 -26.089 280.897 -26.3001 282.685C-28.8248 307.407 -30.0872 332.339 -29.9817 357.166C-29.9817 425.019 -19.6725 540.001 18.7256 540.001C51.6532 540.001 56.176 496.343 61.0155 450.056C67.8531 383.466 76.0586 336.336 118.138 336.336C159.587 336.336 167.581 383.045 174.42 448.898C179.26 495.712 183.782 539.896 217.551 539.896C256.054 539.896 266.363 424.913 266.363 357.06C266.363 332.234 265.206 307.406 262.681 282.58C262.366 280.897 262.681 279.003 263.418 277.425ZM217.446 518.962C202.718 518.962 198.72 480.565 195.248 446.796C189.147 388.201 181.678 315.298 118.033 315.298C53.7568 315.298 46.077 388.832 39.9751 447.848C36.5036 481.196 32.6109 518.963 19.1458 518.963C9.0467 514.86 -9.04779 457.422 -9.04779 357.062C-9.15332 332.867 -7.89094 308.776 -5.47071 284.791C-4.94505 279.32 -5.7863 273.85 -7.99548 268.905C-39.4496 198.105 -52.7046 126.465 -40.2908 94.6955C-28.7193 65.1351 -11.1505 56.0873 13.7816 56.0873C27.9835 56.0873 44.3944 59.0332 63.5403 62.8204C81.6348 66.3974 100.359 70.0791 118.138 70.0791C135.917 70.0791 154.642 66.3974 172.737 62.8204C225.336 52.4057 258.473 48.4085 276.568 94.6955C288.981 126.465 275.621 198.105 244.271 268.904C242.062 273.954 241.115 279.425 241.747 285C244.166 308.985 245.324 333.076 245.324 357.271C245.218 457.421 227.125 514.964 217.446 518.962Z" fill="#BBEEEE"/>
</g>
<defs>
<clipPath id="clip0_94_85">
<rect width="505" height="505" fill="white" transform="translate(-122)"/>
</clipPath>
</defs>
</svg>
