<svg width="100" height="200" viewBox="0 0 100 200" fill="none" xmlns="http://www.w3.org/2000/svg">
<g clip-path="url(#clip0_94_40)">
<path d="M57.5367 96.0098C67.9526 72.5952 77.5767 38.8069 70.4937 20.6C60.4529 -5.14758 38.9548 -0.897971 19.9984 2.80989C13.249 4.14297 6.24962 5.51784 0.000190735 5.51784C-6.24924 5.51784 -13.2486 4.14297 -19.998 2.80989C-38.9544 -0.939764 -60.4111 -5.14758 -70.4933 20.6C-77.5759 38.7651 -67.9518 72.5952 -57.5363 96.0098C-57.2446 96.6766 -57.1196 97.3847 -57.2032 98.0928C-58.2031 107.884 -58.703 117.758 -58.6612 127.59C-58.6612 154.463 -54.5784 200 -39.3712 200C-26.3306 200 -24.5393 182.71 -22.6227 164.378C-19.9148 138.006 -16.6651 119.341 0.000190735 119.341C16.4155 119.341 19.5816 137.839 22.29 163.92C24.2066 182.46 25.9978 199.958 39.3716 199.958C54.6202 199.958 58.703 154.421 58.703 127.548C58.703 117.716 58.2449 107.883 57.245 98.051C57.12 97.3847 57.2449 96.6348 57.5367 96.0098ZM39.3298 191.668C33.4971 191.668 31.9137 176.461 30.5388 163.087C28.1222 139.881 25.1643 111.009 -0.0415878 111.009C-25.4975 111.009 -28.539 140.131 -30.9556 163.504C-32.3304 176.711 -33.8721 191.668 -39.2048 191.668C-43.2044 190.043 -50.3706 167.295 -50.3706 127.549C-50.4124 117.967 -49.9124 108.426 -48.9539 98.9268C-48.7457 96.7602 -49.0789 94.594 -49.9538 92.6355C-62.4109 64.596 -67.6604 36.2236 -62.7441 23.6416C-58.1613 11.9344 -51.2033 8.35117 -41.3292 8.35117C-35.7047 8.35117 -29.2053 9.51786 -21.6228 11.0177C-14.4567 12.4344 -7.04095 13.8925 0.000190735 13.8925C7.04134 13.8925 14.4571 12.4344 21.6232 11.0177C42.4545 6.8931 55.5783 5.31005 62.7444 23.6416C67.6608 36.2236 62.3695 64.596 49.9538 92.6351C49.0789 94.635 48.7039 96.8016 48.9539 99.0096C49.912 108.509 50.3706 118.05 50.3706 127.632C50.3288 167.295 43.163 190.084 39.3298 191.668Z" fill="#BBEEEE"/>
</g>
<defs>
<clipPath id="clip0_94_40">
<rect width="200" height="200" fill="white" transform="translate(-100)"/>
</clipPath>
</defs>
</svg>
