<svg width="32" height="32" viewBox="0 0 32 32" fill="none" xmlns="http://www.w3.org/2000/svg">
<path d="M15.9854 4.5H15.9863C16.1032 4.49965 16.219 4.52356 16.3252 4.57031L16.4287 4.625C16.528 4.68658 16.6124 4.76844 16.6777 4.86426L16.7363 4.96484H16.7373L19.7178 11.0049L19.835 11.2412L20.0947 11.2783L26.7617 12.248C26.8773 12.2647 26.9878 12.3056 27.0859 12.3672L27.1797 12.4355C27.269 12.5108 27.3408 12.6038 27.3916 12.708L27.4355 12.8154C27.4716 12.9263 27.4835 13.0431 27.4717 13.1582L27.4521 13.2725C27.4242 13.3857 27.3726 13.4915 27.3018 13.583L27.2246 13.6699L22.4004 18.373L22.2119 18.5557L22.2568 18.8154L23.3955 25.4551V25.457C23.4112 25.547 23.4115 25.6387 23.3975 25.7285L23.3789 25.8174C23.355 25.9058 23.3166 25.9898 23.2656 26.0654L23.2109 26.1377C23.1519 26.2076 23.082 26.2675 23.0039 26.3145L22.9238 26.3564C22.8407 26.3948 22.7518 26.4192 22.6611 26.4287L22.5703 26.4336H22.5674C22.466 26.4336 22.3658 26.4147 22.2715 26.3789L22.1797 26.3379L16.2178 23.2012L15.9854 23.0791L15.7529 23.2012L9.79102 26.332C9.65353 26.4043 9.49866 26.4369 9.34375 26.4258L9.22852 26.4092C9.15294 26.393 9.07994 26.3664 9.01172 26.3301L8.91406 26.2686C8.81969 26.2 8.74073 26.1129 8.68262 26.0127L8.63184 25.9082C8.58797 25.8003 8.56682 25.6849 8.57031 25.5693L8.58203 25.4541L9.7207 18.8135L9.76562 18.5547L9.57715 18.3711L4.74902 13.6699C4.66534 13.5884 4.59976 13.4905 4.55664 13.3828L4.52148 13.2725C4.49355 13.1592 4.48958 13.0418 4.50977 12.9277L4.53809 12.8154C4.57414 12.7046 4.63272 12.6027 4.70996 12.5166L4.79395 12.4355C4.88314 12.3605 4.98653 12.3048 5.09766 12.2725L5.21094 12.248H5.21191L11.8789 11.2783L12.1387 11.2412L12.2549 11.0049L15.2373 4.96387C15.289 4.85933 15.3622 4.76749 15.4512 4.69336L15.5449 4.625C15.6439 4.56353 15.7546 4.52385 15.8691 4.50781L15.9854 4.5Z" fill="#F9F900" stroke="black"/>
</svg>
