<svg width="16" height="16" viewBox="0 0 16 16" fill="none" xmlns="http://www.w3.org/2000/svg">
<g clip-path="url(#clip0_94_73)">
<path fill-rule="evenodd" clip-rule="evenodd" d="M8 12C10.2091 12 12 10.2091 12 8C12 5.79086 10.2091 4 8 4C5.79086 4 4 5.79086 4 8C4 10.2091 5.79086 12 8 12ZM8 10.6667C9.47273 10.6667 10.6667 9.47273 10.6667 8C10.6667 6.52724 9.47273 5.33333 8 5.33333C6.52724 5.33333 5.33333 6.52724 5.33333 8C5.33333 9.47273 6.52724 10.6667 8 10.6667Z" fill="#808077"/>
<path d="M11.9999 3.3335C11.6317 3.3335 11.3333 3.63198 11.3333 4.00016C11.3333 4.36835 11.6317 4.66683 11.9999 4.66683C12.3681 4.66683 12.6666 4.36835 12.6666 4.00016C12.6666 3.63198 12.3681 3.3335 11.9999 3.3335Z" fill="#808077"/>
<path fill-rule="evenodd" clip-rule="evenodd" d="M1.10272 2.85054C0.666748 3.70619 0.666748 4.8263 0.666748 7.0665V8.93317C0.666748 11.1734 0.666748 12.2935 1.10272 13.1491C1.48621 13.9018 2.09813 14.5137 2.85079 14.8972C3.70643 15.3332 4.82654 15.3332 7.06675 15.3332H8.93341C11.1736 15.3332 12.2937 15.3332 13.1493 14.8972C13.902 14.5137 14.5139 13.9018 14.8974 13.1491C15.3334 12.2935 15.3334 11.1734 15.3334 8.93317V7.0665C15.3334 4.8263 15.3334 3.70619 14.8974 2.85054C14.5139 2.09789 13.902 1.48597 13.1493 1.10248C12.2937 0.666504 11.1736 0.666504 8.93341 0.666504H7.06675C4.82654 0.666504 3.70643 0.666504 2.85079 1.10248C2.09813 1.48597 1.48621 2.09789 1.10272 2.85054ZM8.93341 1.99984H7.06675C5.92464 1.99984 5.14825 2.00088 4.54813 2.0499C3.96357 2.09766 3.66464 2.18423 3.45611 2.29048C2.95434 2.54615 2.54639 2.9541 2.29073 3.45586C2.18447 3.6644 2.09791 3.96333 2.05015 4.54789C2.00112 5.148 2.00008 5.9244 2.00008 7.0665V8.93317C2.00008 10.0753 2.00112 10.8516 2.05015 11.4518C2.09791 12.0364 2.18447 12.3353 2.29073 12.5438C2.54639 13.0456 2.95434 13.4535 3.45611 13.7092C3.66464 13.8154 3.96357 13.902 4.54813 13.9498C5.14825 13.9988 5.92464 13.9998 7.06675 13.9998H8.93341C10.0755 13.9998 10.8519 13.9988 11.452 13.9498C12.0366 13.902 12.3355 13.8154 12.5441 13.7092C13.0458 13.4535 13.4537 13.0456 13.7094 12.5438C13.8157 12.3353 13.9023 12.0364 13.95 11.4518C13.999 10.8516 14.0001 10.0753 14.0001 8.93317V7.0665C14.0001 5.9244 13.999 5.148 13.95 4.54789C13.9023 3.96333 13.8157 3.6644 13.7094 3.45586C13.4537 2.9541 13.0458 2.54615 12.5441 2.29048C12.3355 2.18423 12.0366 2.09766 11.452 2.0499C10.8519 2.00088 10.0755 1.99984 8.93341 1.99984Z" fill="#808077"/>
</g>
<defs>
<clipPath id="clip0_94_73">
<rect width="16" height="16" fill="white"/>
</clipPath>
</defs>
</svg>
