<svg width="20" height="20" viewBox="0 0 20 20" fill="none" xmlns="http://www.w3.org/2000/svg">
<path fill-rule="evenodd" clip-rule="evenodd" d="M9.99995 1.2002C5.13985 1.2002 1.19995 5.14009 1.19995 10.0002C1.19995 14.8603 5.13985 18.8002 9.99995 18.8002C14.86 18.8002 18.8 14.8603 18.8 10.0002C18.8 5.14009 14.86 1.2002 9.99995 1.2002ZM8.18051 3.03206C5.33499 3.77298 3.17436 6.21079 2.8439 9.2002H6.04002C6.21938 6.98965 6.95923 4.86773 8.18051 3.03206ZM11.8194 3.03206C13.0407 4.86773 13.7805 6.98965 13.9599 9.2002H17.156C16.8256 6.21079 14.6649 3.77298 11.8194 3.03206ZM12.3539 9.2002C12.1529 7.02965 11.3357 4.96173 9.99995 3.24082C8.66419 4.96173 7.84697 7.02965 7.64602 9.2002H12.3539ZM7.64602 10.8002H12.3539C12.1529 12.9708 11.3357 15.0387 9.99995 16.7596C8.66419 15.0387 7.84698 12.9708 7.64602 10.8002ZM6.04002 10.8002H2.8439C3.17436 13.7896 5.335 16.2274 8.18053 16.9684C6.95924 15.1327 6.21939 13.0108 6.04002 10.8002ZM11.8194 16.9684C13.0407 15.1327 13.7805 13.0108 13.9599 10.8002H17.156C16.8256 13.7896 14.6649 16.2274 11.8194 16.9684Z" fill="#1A4F99"/>
</svg>
