<svg width="20" height="20" viewBox="0 0 20 20" fill="none" xmlns="http://www.w3.org/2000/svg">
<g clip-path="url(#clip0_81_42)">
<path d="M13.75 10.8333C14.2102 10.8333 14.5833 10.4602 14.5833 10C14.5833 9.53975 14.2102 9.16667 13.75 9.16667H10.8333V4.58333C10.8333 4.1231 10.4602 3.75 9.99996 3.75C9.53971 3.75 9.16663 4.1231 9.16663 4.58333V10C9.16663 10.4602 9.53971 10.8333 9.99996 10.8333H13.75Z" fill="#309293"/>
<path fill-rule="evenodd" clip-rule="evenodd" d="M10 0.833496C4.93743 0.833496 0.833374 4.93755 0.833374 10.0002C0.833374 15.0627 4.93743 19.1668 10 19.1668C15.0626 19.1668 19.1667 15.0627 19.1667 10.0002C19.1667 4.93755 15.0626 0.833496 10 0.833496ZM2.50004 10.0002C2.50004 5.85803 5.85791 2.50016 10 2.50016C14.1422 2.50016 17.5 5.85803 17.5 10.0002C17.5 14.1423 14.1422 17.5002 10 17.5002C5.85791 17.5002 2.50004 14.1423 2.50004 10.0002Z" fill="#309293"/>
</g>
<defs>
<clipPath id="clip0_81_42">
<rect width="20" height="20" fill="white"/>
</clipPath>
</defs>
</svg>
