<svg width="20" height="20" viewBox="0 0 20 20" fill="none" xmlns="http://www.w3.org/2000/svg">
<path fill-rule="evenodd" clip-rule="evenodd" d="M1.6766 4.66842C1.5276 2.9167 3.01311 1.6665 4.59301 1.6665H6.57161C7.51596 1.6665 8.36758 2.23469 8.73016 3.10666L9.70491 5.4511C10.0387 6.25365 9.89958 7.17506 9.34383 7.84333L8.30017 9.09834C8.97358 10.1213 9.82183 11.0438 10.7879 11.8073L12.1522 10.6681C12.8217 10.1091 13.7466 9.96917 14.5513 10.3052L16.8865 11.2802C17.7567 11.6436 18.3234 12.4943 18.3234 13.4373C18.3234 13.7627 18.3259 14.0882 18.3284 14.4173V14.4186C18.3308 14.7462 18.3333 15.0773 18.3333 15.4093C18.3333 16.989 17.0832 18.4748 15.3312 18.3252C8.21476 17.7176 2.28337 11.8022 1.6766 4.66842ZM4.59301 3.33317C3.80671 3.33317 3.28572 3.92122 3.33726 4.52716C3.87513 10.8508 9.16383 16.1259 15.473 16.6646C16.0787 16.7163 16.6667 16.1956 16.6667 15.4093C16.6667 15.0843 16.6642 14.7589 16.6617 14.4298V14.4278C16.6592 14.1003 16.6567 13.7693 16.6567 13.4373C16.6567 13.1667 16.4941 12.9225 16.2443 12.8182L13.9092 11.8432C13.6782 11.7468 13.4127 11.7868 13.2205 11.9473L10.8605 13.9181L10.3376 13.5501C8.80891 12.4743 7.49891 11.0585 6.55617 9.4485L6.2608 8.944L8.06236 6.77766C8.22188 6.58585 8.26181 6.32136 8.16602 6.091L7.19119 3.74655C7.08712 3.49626 6.84268 3.33317 6.57161 3.33317H4.59301Z" fill="#309293"/>
</svg>
